<svg xmlns="http://www.w3.org/2000/svg" width="430" height="430" viewBox="0 0 430 430">
  <rect width="430" height="430" fill="#ffffff"/>
  <g stroke="#9a9a9a" stroke-width="1.4">
    <line x1="40" y1="40" x2="40" y2="390"/>
    <line x1="75" y1="40" x2="75" y2="390"/>
    <line x1="110" y1="40" x2="110" y2="390"/>
    <line x1="145" y1="40" x2="145" y2="390"/>
    <line x1="180" y1="40" x2="180" y2="390"/>
    <line x1="215" y1="40" x2="215" y2="390"/>
    <line x1="250" y1="40" x2="250" y2="390"/>
    <line x1="285" y1="40" x2="285" y2="390"/>
    <line x1="320" y1="40" x2="320" y2="390"/>
    <line x1="355" y1="40" x2="355" y2="390"/>
    <line x1="390" y1="40" x2="390" y2="390"/>
    <line x1="40" y1="40" x2="390" y2="40"/>
    <line x1="40" y1="75" x2="390" y2="75"/>
    <line x1="40" y1="110" x2="390" y2="110"/>
    <line x1="40" y1="145" x2="390" y2="145"/>
    <line x1="40" y1="180" x2="390" y2="180"/>
    <line x1="40" y1="215" x2="390" y2="215"/>
    <line x1="40" y1="250" x2="390" y2="250"/>
    <line x1="40" y1="285" x2="390" y2="285"/>
    <line x1="40" y1="320" x2="390" y2="320"/>
    <line x1="40" y1="355" x2="390" y2="355"/>
    <line x1="40" y1="390" x2="390" y2="390"/>
  </g>
  <g stroke="#222" stroke-width="3">
    <line x1="215" y1="390" x2="215" y2="48"/>
    <polygon points="215,40 207,58 223,58" fill="#222"/>
    <line x1="40" y1="250" x2="382" y2="250"/>
    <polygon points="390,250 372,242 372,258" fill="#222"/>
  </g>
  <line x1="145" y1="40" x2="337" y2="390" stroke="#333" stroke-width="4"/>
  <text x="198" y="276" font-family="Georgia, serif" font-size="26">0</text>
  <text x="245" y="240" font-family="Georgia, serif" font-size="26">1</text>
  <text x="230" y="70" font-family="Georgia, serif" font-size="30" font-style="italic">y</text>
  <text x="365" y="284" font-family="Georgia, serif" font-size="30" font-style="italic">x</text>
</svg>
