<svg xmlns="http://www.w3.org/2000/svg" width="560" height="330" viewBox="0 0 560 330">
  <rect width="560" height="330" fill="#ffffff"/>
  <g stroke="#087eaa" stroke-width="6" fill="none" stroke-linecap="round" stroke-linejoin="round">
    <line x1="80" y1="35" x2="135" y2="160"/>
    <line x1="135" y1="160" x2="72" y2="290"/>
    <line x1="72" y1="290" x2="80" y2="35"/>
    <line x1="80" y1="35" x2="350" y2="58"/>
    <line x1="350" y1="58" x2="505" y2="35"/>
    <line x1="505" y1="35" x2="505" y2="290"/>
    <line x1="505" y1="290" x2="285" y2="300"/>
    <line x1="285" y1="300" x2="72" y2="290"/>
    <line x1="135" y1="160" x2="350" y2="58"/>
    <line x1="135" y1="160" x2="375" y2="150"/>
    <line x1="135" y1="160" x2="225" y2="220"/>
    <line x1="225" y1="220" x2="285" y2="300"/>
    <line x1="225" y1="220" x2="375" y2="150"/>
    <line x1="285" y1="300" x2="375" y2="150"/>
    <line x1="350" y1="58" x2="375" y2="150"/>
    <line x1="375" y1="150" x2="505" y2="35"/>
    <line x1="375" y1="150" x2="505" y2="290"/>
  </g>
  <g fill="#087eaa" stroke="#ffffff" stroke-width="2">
    <circle cx="80" cy="35" r="10"/>
    <circle cx="135" cy="160" r="10"/>
    <circle cx="72" cy="290" r="10"/>
    <circle cx="225" cy="220" r="10"/>
    <circle cx="285" cy="300" r="10"/>
    <circle cx="350" cy="58" r="10"/>
    <circle cx="375" cy="150" r="10"/>
    <circle cx="505" cy="35" r="10"/>
    <circle cx="505" cy="290" r="10"/>
  </g>
</svg>
