<svg xmlns="http://www.w3.org/2000/svg" width="620" height="300" viewBox="0 0 620 300">
  <rect width="620" height="300" fill="#ffffff"/>
  <g transform="translate(210 150)">
    <path d="M0 0 L0 -105 A105 105 0 0 1 54.1 -90 Z" fill="#df8c8c" stroke="#333" stroke-width="1"/>
    <path d="M0 0 L54.1 -90 A105 105 0 0 1 99.1 -34.9 Z" fill="#438fd3" stroke="#333" stroke-width="1"/>
    <path d="M0 0 L99.1 -34.9 A105 105 0 0 1 56.6 88.5 Z" fill="#9c9449" stroke="#333" stroke-width="1"/>
    <path d="M0 0 L56.6 88.5 A105 105 0 0 1 -43.1 95.7 Z" fill="#ff3448" stroke="#333" stroke-width="1"/>
    <path d="M0 0 L-43.1 95.7 A105 105 0 0 1 -105 0 Z" fill="#78c7d2" stroke="#333" stroke-width="1"/>
    <path d="M0 0 L-105 0 A105 105 0 0 1 0 -105 Z" fill="#ffbc7d" stroke="#333" stroke-width="1"/>
  </g>
  <g font-family="Georgia, serif" font-size="20" fill="#222">
    <rect x="395" y="52" width="12" height="12" fill="#df8c8c" stroke="#333" stroke-width="0.8"/>
    <text x="418" y="65">1 день</text>
    <rect x="395" y="88" width="12" height="12" fill="#438fd3" stroke="#333" stroke-width="0.8"/>
    <text x="418" y="101">2 день</text>
    <rect x="395" y="124" width="12" height="12" fill="#9c9449" stroke="#333" stroke-width="0.8"/>
    <text x="418" y="137">3 день</text>
    <rect x="395" y="160" width="12" height="12" fill="#ff3448" stroke="#333" stroke-width="0.8"/>
    <text x="418" y="173">4 день</text>
    <rect x="395" y="196" width="12" height="12" fill="#78c7d2" stroke="#333" stroke-width="0.8"/>
    <text x="418" y="209">5 день</text>
    <rect x="395" y="232" width="12" height="12" fill="#ffbc7d" stroke="#333" stroke-width="0.8"/>
    <text x="418" y="245">6 день</text>
  </g>
</svg>
