<svg xmlns="http://www.w3.org/2000/svg" width="360" height="260" viewBox="0 0 360 260">
  <rect width="360" height="260" fill="#ffffff"/>
  <g stroke="#8e8e8e" stroke-width="1">
    <line x1="50" y1="30" x2="50" y2="230"/>
    <line x1="75" y1="30" x2="75" y2="230"/>
    <line x1="100" y1="30" x2="100" y2="230"/>
    <line x1="125" y1="30" x2="125" y2="230"/>
    <line x1="150" y1="30" x2="150" y2="230"/>
    <line x1="175" y1="30" x2="175" y2="230"/>
    <line x1="200" y1="30" x2="200" y2="230"/>
    <line x1="225" y1="30" x2="225" y2="230"/>
    <line x1="250" y1="30" x2="250" y2="230"/>
    <line x1="275" y1="30" x2="275" y2="230"/>
    <line x1="300" y1="30" x2="300" y2="230"/>
    <line x1="50" y1="30" x2="300" y2="30"/>
    <line x1="50" y1="55" x2="300" y2="55"/>
    <line x1="50" y1="80" x2="300" y2="80"/>
    <line x1="50" y1="105" x2="300" y2="105"/>
    <line x1="50" y1="130" x2="300" y2="130"/>
    <line x1="50" y1="155" x2="300" y2="155"/>
    <line x1="50" y1="180" x2="300" y2="180"/>
    <line x1="50" y1="205" x2="300" y2="205"/>
    <line x1="50" y1="230" x2="300" y2="230"/>
  </g>
  <path d="M75 55 L75 180 L250 180 Z" fill="none" stroke="#2765b8" stroke-width="4" stroke-linejoin="round"/>
</svg>
